HIERARCHY
ROOT ui
{
	 OFFSET 0 0 0
	 CHANNELS 3 XPosition YPosition Z Position
	 EndSite
	 {
	 OFFSET 0 -1 0
	 }
}
ROOT li
{
	 OFFSET 0 0 0
	 CHANNELS 3 XPosition YPosition Z Position
	 EndSite
	 {
	 OFFSET 0 -1 0
	 }
}
ROOT ul
{
	 OFFSET 0 0 0
	 CHANNELS 3 XPosition YPosition Z Position
	 EndSite
	 {
	 OFFSET 0 -1 0
	 }
}
ROOT ll
{
	 OFFSET 0 0 0
	 CHANNELS 3 XPosition YPosition Z Position
	 EndSite
	 {
	 OFFSET 0 -1 0
	 }
}
ROOT tt
{
	 OFFSET 0 0 0
	 CHANNELS 3 XPosition YPosition Z Position
	 EndSite
	 {
	 OFFSET 0 -1 0
	 }
}
ROOT tb
{
	 OFFSET 0 0 0
	 CHANNELS 3 XPosition YPosition Z Position
	 EndSite
	 {
	 OFFSET 0 -1 0
	 }
}
ROOT td
{
	 OFFSET 0 0 0
	 CHANNELS 3 XPosition YPosition Z Position
	 EndSite
	 {
	 OFFSET 0 -1 0
	 }
}
ROOT v
{
	 OFFSET 0 0 0
	 CHANNELS 3 XPosition YPosition Z Position
	 EndSite
	 {
	 OFFSET 0 -1 0
	 }
}
ROOT bn
{
	 OFFSET 0 0 0
	 CHANNELS 3 XPosition YPosition Z Position
	 EndSite
	 {
	 OFFSET 0 -1 0
	 }
}
MOTION
Frames: 30
Frame Time: 0.002
-0.005163646221160888	9.079660177230835E-4	0		0.49712701416015626	-2.434517333984375	0		-1.1175521240234374	0.04491655731201172	0		-0.600785400390625	-2.419773681640625	0		2.24265625	-1.697783935546875	0		3.57839111328125	-0.5566168212890625	0		4.98347216796875	-0.11981050109863281	0		5.9191181640625	0.5194692993164063	0		-0.21242274475097656	5.88358544921875	0		
-0.001439097046852112	0.005130423069000244	0		0.5267557983398438	-2.43277392578125	0		-1.1528203125	0.04986653137207031	0		-0.6361277465820312	-2.41583544921875	0		2.26381689453125	-1.72293212890625	0		3.583886474609375	-0.5645101928710937	0		5.0020654296875	-0.12297078704833984	0		5.931619140625	0.5103966674804687	0		-0.21263533020019532	5.88388525390625	0		
0.0012348480224609376	0.008395815849304199	0		0.5232322387695313	-2.437410888671875	0		-1.1310762939453125	0.05681439971923828	0		-0.5968922119140625	-2.434219482421875	0		2.269181640625	-1.734768798828125	0		3.616344482421875	-0.572863525390625	0		5.0065380859375	-0.13085096740722657	0		5.92641357421875	0.51967333984375	0		-0.0805090789794922	5.9038271484375	0		
-0.009350532531738282	-0.0010831379890441895	0		0.5227748413085938	-2.437082763671875	0		-1.1786005859375	0.051026214599609376	0		-0.63839697265625	-2.436127685546875	0		2.29649951171875	-1.7479801025390624	0		3.648740234375	-0.5831936645507813	0		5.0209638671875	-0.13988529968261718	0		5.926017578125	0.5198890991210937	0		-0.22734678649902343	5.8748076171875	0		
-0.00672382116317749	0.0022134180068969726	0		0.520266357421875	-2.438705078125	0		-1.1020572509765625	0.04900854873657227	0		-0.6100551147460938	-2.446286865234375	0		2.30867626953125	-1.76790380859375	0		3.614163330078125	-0.5902955932617188	0		5.02537060546875	-0.14871734619140625	0		5.92629345703125	0.5031136169433593	0		-0.2266997528076172	5.8731455078125	0		
-3.99260014295578E-4	-0.010555208206176758	0		0.5047174682617187	-2.4420859375	0		-1.175411376953125	0.05470150756835938	0		-0.6366565551757812	-2.452449951171875	0		2.3228984375	-1.7848541259765625	0		3.63354833984375	-0.59935888671875	0		5.03076513671875	-0.15755052185058593	0		5.90886474609375	0.50368017578125	0		-0.2449680938720703	5.87782958984375	0		
0.014264103889465331	-0.004474238872528076	0		0.5322380981445313	-2.442245849609375	0		-1.1159173583984374	0.05098516082763672	0		-0.6262960815429688	-2.46128564453125	0		2.33917626953125	-1.798836669921875	0		3.66594775390625	-0.607649169921875	0		5.0464990234375	-0.1475545654296875	0		5.92157177734375	0.5117191772460937	0		-0.07790825653076172	5.90016015625	0		
-9.172859787940979E-4	0.010139925003051758	0		0.5297418823242187	-2.443869384765625	0		-1.17221826171875	0.059353424072265626	0		-0.6437176513671875	-2.45862744140625	0		2.3685361328125	-1.80905517578125	0		3.65832470703125	-0.61721044921875	0		5.06089501953125	-0.15652729797363282	0		5.92113916015625	0.5120082397460938	0		-0.21164816284179688	5.88191748046875	0		
-0.0017037889957427978	-0.009525527000427246	0		0.5781149291992187	-2.4544267578125	0		-1.1037984619140624	0.050442890167236326	0		-0.6055241088867187	-2.47899560546875	0		2.368775634765625	-1.826752197265625	0		3.66064306640625	-0.6309513549804687	0		5.0604697265625	-0.15622392272949218	0		5.9165732421875	0.5043806457519531	0		-0.0938421630859375	5.89211083984375	0		
-0.002108375072479248	-0.009213227272033692	0		0.52376904296875	-2.450137939453125	0		-1.1811722412109376	0.05315163803100586	0		-0.6140768432617187	-2.486535888671875	0		2.370041259765625	-1.8444775390625	0		3.69096044921875	-0.6462047729492187	0		5.06490087890625	-0.165010009765625	0		5.90717138671875	0.5048450622558593	0		-0.2607157897949219	5.8674345703125	0		
0.012692326545715333	8.025010228157044E-4	0		0.5513714599609375	-2.451355224609375	0		-1.136666259765625	0.04662518692016602	0		-0.6415921020507812	-2.49375732421875	0		2.38435546875	-1.861454345703125	0		3.703581298828125	-0.6461465454101563	0		5.07348583984375	-0.16687722778320313	0		5.90679248046875	0.5051416015625	0		-0.24592254638671876	5.87744970703125	0		
0.007348042964935303	0.001155771017074585	0		0.5100246276855469	-2.451347900390625	0		-1.1778419189453124	0.05662429809570312	0		-0.6331280517578125	-2.504658447265625	0		2.400978515625	-1.86348974609375	0		3.71721826171875	-0.6471226196289063	0		5.08208544921875	-0.16975709533691405	0		5.89844677734375	0.5055722961425781	0		-0.21122401428222656	5.8810771484375	0		
0.01203951358795166	0.0012991609573364258	0		0.5767036743164062	-2.4533232421875	0		-1.14728173828125	0.049290592193603516	0		-0.6554884033203126	-2.50802978515625	0		2.40546484375	-1.8753289794921875	0		3.72860498046875	-0.6640792236328125	0		5.10077587890625	-0.1698343505859375	0		5.9099892578125	0.4976283264160156	0		-0.2257664794921875	5.87056494140625	0		
-0.010170429229736329	0.004899092197418213	0		0.5204853515625	-2.451102783203125	0		-1.147550048828125	0.049482501983642575	0		-0.629972900390625	-2.521301513671875	0		2.42795703125	-1.8895186767578125	0		3.745412841796875	-0.6601513061523437	0		5.099455078125	-0.17256719970703124	0		5.9058623046875	0.5059552917480469	0		-0.09471095275878906	5.8903916015625	0		
0.026271072387695313	-0.01359920597076416	0		0.5441926879882812	-2.456362060546875	0		-1.160974365234375	0.03887374496459961	0		-0.6624182739257812	-2.534560302734375	0		2.416572998046875	-1.8991219482421875	0		3.741103759765625	-0.6648666381835937	0		5.11406494140625	-0.181609619140625	0		5.90948388671875	0.4981210021972656	0		-0.26046783447265626	5.8665458984375	0		
-0.0038202149868011475	-0.007926967144012451	0		0.5299705810546875	-2.459969970703125	0		-1.1611614990234376	0.03898814392089844	0		-0.6666409301757813	-2.538365966796875	0		2.460008544921875	-1.92174853515625	0		3.737836669921875	-0.6696282348632813	0		5.11695263671875	-0.17746176147460938	0		5.91027197265625	0.4973169860839844	0		-0.2587915954589844	5.86363720703125	0		
0.00620989990234375	0.0019833669662475584	0		0.5687293090820312	-2.467571533203125	0		-1.1911798095703126	0.046601951599121096	0		-0.6687839965820312	-2.540248046875	0		2.44703759765625	-1.91338232421875	0		3.78661865234375	-0.6743582153320312	0		5.13164208984375	-0.1865546875	0		5.910115234375	0.4975063171386719	0		-0.19459573364257812	5.88756640625	0		
0.003041208982467651	-9.073839783668518E-4	0		0.5645711059570313	-2.472433349609375	0		-1.1293599853515626	0.04251675033569336	0		-0.6081497192382812	-2.55730322265625	0		2.508407470703125	-1.944394775390625	0		3.763610107421875	-0.668818603515625	0		5.1315302734375	-0.18640367126464844	0		5.91415234375	0.506598388671875	0		-0.07960576629638672	5.89854150390625	0		
-0.004169817924499512	-0.0077625632286071776	0		0.55162939453125	-2.467170654296875	0		-1.1335003662109375	0.03958296203613281	0		-0.68622314453125	-2.558893310546875	0		2.5141455078125	-1.9564302978515624	0		3.76628564453125	-0.6827732543945313	0		5.1314482421875	-0.18627764892578125	0		5.90091357421875	0.49897637939453127	0		-0.21119151306152345	5.87892041015625	0		
-0.0042320041656494145	-0.007780433177947998	0		0.5755298461914062	-2.472606689453125	0		-1.0756988525390625	0.03149713897705078	0		-0.62348876953125	-2.5740576171875	0		2.510020751953125	-1.9623175048828125	0		3.772075927734375	-0.6918110961914062	0		5.13722705078125	-0.19528416442871094	0		5.8928408203125	0.49923785400390625	0		-0.24076174926757812	5.8584228515625	0		
-0.0042751641273498535	-0.007830620765686035	0		0.5433175659179688	-2.48506591796875	0		-1.17665478515625	0.03723470687866211	0		-0.6736957397460938	-2.58622265625	0		2.517861572265625	-1.9714495849609375	0		3.8048642578125	-0.7023616943359375	0		5.14613330078125	-0.19837199401855468	0		5.897623046875	0.490240966796875	0		-0.2797419738769531	5.8700654296875	0		
-0.00699763822555542	0.009142556190490723	0		0.56150927734375	-2.476454833984375	0		-1.0676475830078125	0.03817226409912109	0		-0.6088857421875	-2.59948095703125	0		2.517882080078125	-1.9714652099609375	0		3.79624951171875	-0.680187744140625	0		5.1592158203125	-0.19255703735351562	0		5.90172607421875	0.498235595703125	0		-0.2107644805908203	5.87774169921875	0		
-0.007013154029846191	0.009042111396789551	0		0.53356103515625	-2.476039306640625	0		-1.1517578125	0.03355059432983398	0		-0.6499004516601562	-2.602861572265625	0		2.532573974609375	-1.990767578125	0		3.821925048828125	-0.6986549682617188	0		5.16816796875	-0.19468788146972657	0		5.89271728515625	0.49944540405273435	0		-0.21191014099121094	5.87865380859375	0		
-0.004321387767791748	-0.008127204895019531	0		0.5834710083007812	-2.48503662109375	0		-1.092664306640625	0.03834615707397461	0		-0.6091466674804688	-2.620727294921875	0		2.530569091796875	-1.993783447265625	0		3.825028564453125	-0.69372802734375	0		5.16816943359375	-0.19467138671875	0		5.90069970703125	0.49933770751953127	0		-0.21206680297851563	5.8785302734375	0		
-0.014131934165954589	0.001917273998260498	0		0.529627685546875	-2.480189453125	0		-1.168626220703125	0.04054116058349609	0		-0.6609688110351563	-2.614948486328125	0		2.54554052734375	-1.9991141357421875	0		3.81887890625	-0.703647705078125	0		5.16818408203125	-0.19466331481933594	0		5.89753466796875	0.49042071533203124	0		-0.22737586975097657	5.8696611328125	0		
0.010887954711914062	0.0013281630277633667	0		0.5655031127929687	-2.49295703125	0		-1.1007569580078125	0.031153488159179687	0		-0.6510497436523438	-2.625287109375	0		2.52866015625	-1.9968812255859374	0		3.825100341796875	-0.6937896118164063	0		5.17715869140625	-0.19781788635253905	0		5.897544921875	0.4904470520019531	0		-0.24644612121582032	5.87385009765625	0		
0.010858715057373047	-0.0028205959796905517	0		0.5437501220703125	-2.485698974609375	0		-1.168562744140625	0.040178871154785155	0		-0.6509266967773437	-2.625456787109375	0		2.547778564453125	-1.996291259765625	0		3.857016357421875	-0.7023895874023437	0		5.18927587890625	-0.19402210998535158	0		5.9106943359375	0.49724679565429686	0		-0.2456033172607422	5.8726748046875	0		
0.018097614288330077	0.006901076793670654	0		0.59376416015625	-2.493720458984375	0		-1.10472509765625	0.02685150146484375	0		-0.6568812866210938	-2.631524169921875	0		2.54174951171875	-2.0052498779296877	0		3.844086669921875	-0.7031807861328125	0		5.19350390625	-0.18507183837890626	0		5.910455078125	0.48129647827148436	0		-0.08123260498046875	5.899595703125	0		
-0.013921688079833985	0.0013176369667053222	0		0.5281097412109375	-2.483681884765625	0		-1.11462451171875	0.027834924697875976	0		-0.6268825073242188	-2.642231201171875	0		2.556815673828125	-2.010572265625	0		3.831197265625	-0.7029588012695313	0		5.186310546875	-0.2009031982421875	0		5.89768115234375	0.49059439086914064	0		-0.09754588317871093	5.8897255859375	0		
-0.003999680995941162	-0.009007177352905273	0		0.5859844970703125	-2.502832275390625	0		-1.1236475830078125	0.020800628662109376	0		-0.6656854248046875	-2.642716064453125	0		2.54003662109375	-2.008316162109375	0		3.8573046875	-0.7044105834960938	0		5.20541650390625	-0.20117585754394532	0		5.8974609375	0.4736895446777344	0		-0.22905514526367188	5.86989306640625	0		
